<svg xmlns="http://www.w3.org/2000/svg" viewBox="6.1043 -24.0417 38.76 41.01">
  <path d="M 25.4558 -15.5563 s 16.2097 14.903 18.3579 16.9974 c 2.1482 2.0945 0.8761 4.7836 -2.7301 2.7316 S 25.4558 -4.2426 25.4558 -4.2426 Z M 7.0986 1.4418 C 9.1924 -0.7071 25.4558 -15.5563 25.4558 -15.5563 L 25.4558 -4.2426 S 12.4649 2.5017 9.8238 4.1741 C 6.364 6.364 5.0035 3.5907 7.0986 1.4418 z M 38.0621 -4.3643 a 0.997 0.997 -45 0 1 -0.9998 0.9998 l -1.9997 0 a 0.997 0.997 -45 0 1 -0.9998 -0.9998 L 34.0627 -8.3637 a 0.999 0.999 -45 0 1 0.9998 -0.9998 l 1.9997 0 a 0.997 0.997 -45 0 1 0.9998 0.9998 L 38.0621 -4.3643 z m -21.2132 0 a 0.997 0.997 -45 0 1 -0.9998 0.9998 l -1.9997 0 a 0.997 0.997 -45 0 1 -0.9998 -0.9998 L 12.8495 -8.3637 a 0.999 0.999 -45 0 1 0.9998 -0.9998 l 1.9997 0 a 0.997 0.997 -45 0 1 0.9998 0.9998 L 16.8489 -4.3643 z m 4.3643 -12.6063 c 0 -2.8284 2.8284 -7.0711 4.2426 -7.0711 s 4.2426 4.2426 4.2426 7.0711 s -0.7071 26.163 -0.7071 26.163 s -1.4142 7.7782 -3.5355 7.7782 s -3.5355 -7.7782 -3.5355 -7.7782 S 21.2132 -14.1421 21.2132 -16.9706 z M 19.0919 14 c 1.0607 -1.0607 6.364 -5.3033 6.364 -5.3033 l 0 6.3639 s -4.2427 1.0607 -5.3033 1.0607 s -2.1214 -1.0607 -1.0607 -2.1213 Z M 25.4558 8.6967 s 5.3033 4.2426 6.3639 5.3033 s 0 2.1213 -1.0606 2.1213 s -5.3033 -1.0607 -5.3033 -1.0607 l 0 -6.3639 Z" fill="#000000"/>
</svg>